<svg width="24" height="24" viewBox="0 0 24 24" fill="none" xmlns="http://www.w3.org/2000/svg">
<circle cx="12" cy="12" r="11.6" fill="white" stroke="#CECECE" stroke-width="0.8"/>
<path d="M6.67669 18.0425C6.47841 18.2408 6.15692 18.2408 5.95864 18.0425C5.76035 17.8442 5.76035 17.5228 5.95864 17.3245L11.2816 12.0016L5.95864 6.67865C5.76035 6.48036 5.76035 6.15888 5.95864 5.96059C6.15692 5.7623 6.47841 5.7623 6.67669 5.96059L11.9996 11.2835L17.3225 5.96059C17.5208 5.7623 17.8423 5.7623 18.0406 5.96059C18.2389 6.15888 18.2389 6.48036 18.0406 6.67865L12.7177 12.0016L18.0406 17.3245C18.2389 17.5228 18.2389 17.8442 18.0406 18.0425C17.8423 18.2408 17.5208 18.2408 17.3225 18.0425L11.9996 12.7196L6.67669 18.0425Z" fill="#E86961"/>
</svg>
