<svg width="48" height="48" viewBox="0 0 48 48" fill="none" xmlns="http://www.w3.org/2000/svg">
<g clip-path="url(#clip0_2189_15222)">
<path d="M5.35401 11.8292L4.12246 10.3088C3.41535 9.43577 3.5658 8.15178 4.45556 7.46591L11.0145 2.40993C11.8745 1.74704 13.1063 1.89137 13.7897 2.73511L15.0213 4.25556C15.7284 5.12854 15.5779 6.41253 14.6881 7.0984L13.5068 8.00903L26.411 24.7492L30.7333 21.4173C31.5445 20.792 32.7001 20.8757 33.3593 21.6596C37.6659 26.7811 42.8353 36.1797 35.9313 41.5017C29.0183 46.8306 21.3481 39.3244 17.5688 33.7984C16.9964 32.9614 17.2149 31.8379 18.018 31.2189L22.0698 28.0956L9.16563 11.3554L8.12918 12.1544C7.26922 12.8173 6.03743 12.6729 5.35401 11.8292Z" fill="#D0957B"/>
</g>
<defs>
<clipPath id="clip0_2189_15222">
<rect width="48" height="48" fill="white"/>
</clipPath>
</defs>
</svg>
