<svg width="76" height="24" viewBox="0 0 76 24" fill="none" xmlns="http://www.w3.org/2000/svg">
<path d="M11.7347 12H7.65842C7.44666 9.63542 6.8467 7.53553 5.85851 5.70033C5.22325 7.14732 4.90562 8.47666 4.90562 9.68836C4.90562 10.5118 5.05856 11.2824 5.36442 12H0.77643C0.694081 11.5177 0.652907 10.8706 0.652907 10.0589C0.652907 9.2472 0.764665 8.45901 0.988183 7.69435C1.84696 7.4473 2.67045 7.02967 3.45864 6.44147C4.24683 5.8415 4.81151 5.20624 5.15267 4.53569C4.89386 4.12395 4.55858 3.67103 4.14684 3.17694H9.98771C11.1524 5.68269 11.7347 8.62371 11.7347 12ZM14.6124 11.9471C13.5654 10.606 13.0419 9.22956 13.0419 7.81787C13.0419 6.40618 13.6301 5.21212 14.8065 4.23571C15.9829 3.25929 17.4887 2.77108 19.3239 2.77108C20.3003 2.77108 21.2708 2.91813 22.2355 3.21223C23.0825 4.28276 23.506 5.42976 23.506 6.65322C23.506 8.19432 22.8766 9.53542 21.6179 10.6765C20.3591 11.8177 18.8357 12.3882 17.0475 12.3882C16.2829 12.3882 15.4711 12.2412 14.6124 11.9471ZM17.2946 4.30629C16.8828 5.01213 16.677 5.8415 16.677 6.79439C16.677 7.74728 16.8828 8.62959 17.2946 9.44131C17.7181 10.2413 18.2945 10.8177 19.0239 11.1706C19.5768 10.4648 19.8533 9.64718 19.8533 8.71782C19.8533 7.78846 19.6239 6.9238 19.1651 6.12384C18.718 5.32388 18.0945 4.71803 17.2946 4.30629ZM36.0383 3.17694L36.0736 4.67686C36.0736 6.97085 35.8501 9.4119 35.4031 12H31.1857C31.4562 10.0825 31.5915 8.17667 31.5915 6.28266C31.5915 5.62387 31.5739 4.97096 31.5386 4.32394H31.2386C30.568 4.32394 30.0093 4.35923 29.5622 4.42981V4.99449C29.5622 7.35907 29.3622 9.69424 28.9623 12H24.9389C25.1036 10.7412 25.186 9.36485 25.186 7.87081C25.186 6.37677 25.0801 4.81215 24.8684 3.17694H36.0383ZM49.2947 11.8588V12H45.2008C45.1538 11.3294 45.0538 10.6354 44.9008 9.91776C44.1715 10.6589 43.348 11.353 42.4304 12H38.3188C38.2365 11.5177 38.1953 10.8824 38.1953 10.0942C38.1953 9.29426 38.313 8.4943 38.5482 7.69435C39.3952 7.4473 40.207 7.02967 40.9834 6.44147C41.7716 5.85327 42.3421 5.21801 42.6951 4.53569C42.3774 4.0416 42.0422 3.58868 41.6892 3.17694H47.5478C48.7124 5.70622 49.2947 8.60018 49.2947 11.8588ZM44.5832 8.62959C44.2773 7.58259 43.8774 6.5944 43.3833 5.66504C42.8304 7.28848 42.5127 8.8237 42.4304 10.2707C43.2774 9.83541 43.995 9.28838 44.5832 8.62959Z" fill="#FFF1D7"/>
<path d="M73.5252 11.8588V12H69.4313C69.3842 11.3294 69.2842 10.6354 69.1313 9.91776C68.4019 10.6589 67.5784 11.353 66.6608 12H62.5493C62.467 11.5177 62.4258 10.8824 62.4258 10.0942C62.4258 9.29426 62.5434 8.4943 62.7787 7.69435C63.6257 7.4473 64.4374 7.02967 65.2139 6.44147C66.0021 5.85327 66.5726 5.21801 66.9255 4.53569C66.6079 4.0416 66.2726 3.58868 65.9197 3.17694H71.7782C72.9429 5.70622 73.5252 8.60018 73.5252 11.8588ZM68.8137 8.62959C68.5078 7.58259 68.1078 6.5944 67.6137 5.66504C67.0608 7.28848 66.7432 8.8237 66.6608 10.2707C67.5079 9.83541 68.2255 9.28838 68.8137 8.62959Z" fill="#FFF1D7"/>
<path fill-rule="evenodd" clip-rule="evenodd" d="M51.4294 16.0442C51.4294 15.8479 51.8956 15.6721 52.4536 15.5354L55.2447 18.1831L57.759 15.5173C58.2583 15.6847 58.6823 15.9033 58.9074 16.0442V22.004C58.0426 22.7172 56.0993 24.1129 55.2447 23.9907C54.3901 23.8684 52.3451 22.6153 51.4294 22.004V16.0442ZM53.8712 15.2801C53.6205 15.3115 53.2925 15.3612 52.9586 15.4258L55.2447 17.5718L57.2855 15.3823C57.0164 15.3197 56.7379 15.2801 56.4656 15.2801C56.3984 14.9323 56.3252 14.7481 56.2598 14.5834C56.0336 14.0136 55.9004 13.6783 56.4284 7.60607C55.9531 7.20682 54.849 6.69791 53.905 7.60505C53.9737 8.44571 54.0458 9.20986 54.1112 9.90328C54.3813 12.7651 54.5376 14.4221 53.8712 15.2801ZM53.8712 7.18075C51.4294 5.7137 50.1068 3.81877 49.7507 3.05469H61.1965C61.1965 4.03272 58.0426 6.21291 56.4656 7.18076C56.4656 7.1808 56.4656 7.18084 56.4656 7.18088V7.17983C55.611 6.32405 54.3799 6.82326 53.8712 7.17983V7.18075Z" fill="#FFF1D7"/>
</svg>
