<svg width="1540" height="1452" viewBox="0 0 1540 1452" fill="none"
    xmlns="http://www.w3.org/2000/svg">
    <g clip-path="url(#clip0_2269_7760)">
        <mask id="mask0_2269_7760" style="mask-type:luminance" maskUnits="userSpaceOnUse" x="637"
            y="0" width="921" height="663">
            <path d="M1558 2.67774e-05H637V663H1558V2.67774e-05Z" fill="white" />
        </mask>
        <g mask="url(#mask0_2269_7760)">
            <path
                d="M1282.24 296.543C1282.24 296.543 1283.25 326.654 1284.68 344.559C1286.11 362.462 1282.81 377.161 1265.17 387.616C1247.52 398.065 1196.76 422.889 1175.19 422.889C1153.61 422.889 1119.41 410.276 1098.25 397.049C1077.08 383.825 1061.41 363.807 1056.32 336.585C1051.23 309.362 1053.26 268.872 1053.26 268.872C1053.26 268.872 1124.1 267.448 1142.01 274.164C1159.92 280.877 1204.29 265.452 1231.56 272.147C1258.84 278.843 1282.24 296.543 1282.24 296.543Z"
                fill="#F8F3D3" />
            <path
                d="M1359.46 161.917C1357.26 106.042 1298.12 -10.0776 1174.37 22.5042C1050.62 55.0282 1054.15 183.359 1057.13 195.02C1060.11 206.681 1051.43 201.27 1040.29 206.421C1029.17 211.571 1007.2 229.743 1021.04 259.026C1034.87 288.338 1062.84 271.237 1085.07 278.297C1087.24 278.992 1089.12 279.889 1090.8 280.988C1085.82 278.355 1071.78 274.767 1070.68 287.788C1070.54 289.38 1070.51 291.521 1070.56 294.096C1070.56 294.212 1070.54 294.357 1070.54 294.501C1069.87 303.066 1071.32 314.38 1074.01 325.145C1076.82 340.018 1081.51 354.312 1088.37 358.71C1098.47 365.163 1104.63 359.347 1111.5 352.373C1111.55 352.344 1111.58 352.286 1111.64 352.257C1119.11 346.181 1123.68 338.773 1127.13 344.242C1128.14 345.834 1129.44 347.049 1130.83 347.917L1130.86 347.946C1131.76 349.046 1132.97 349.885 1134.77 349.971C1136.13 350.029 1137.26 349.827 1138.18 349.364C1138.36 349.335 1138.5 349.248 1138.68 349.161C1138.88 349.017 1139.08 348.901 1139.28 348.785C1142.44 346.586 1143.54 342.159 1147.1 341.349C1147.91 341.435 1148.81 341.783 1149.82 342.419C1155.32 345.92 1158.01 350.492 1161.2 350.29C1163.89 350.695 1165.37 348.062 1167.16 345.313C1169.01 343.143 1171.1 340.828 1173.33 339.757C1174.43 339.497 1175.7 339.497 1177.21 339.873C1178.07 340.075 1178.86 340.394 1179.55 340.799C1179.58 340.799 1179.58 340.828 1179.58 340.828C1181.66 342.853 1183.83 345.892 1186.32 349.161C1186.35 349.219 1186.38 349.277 1186.41 349.306C1189.42 354.977 1192.63 361.459 1201.43 364.092C1202.16 364.295 1202.88 364.497 1203.6 364.613C1205.52 365.423 1207.57 366.002 1209.77 366.32C1225.75 368.577 1238.98 324.624 1238.98 324.624L1239.5 316.956C1240.6 310.995 1240.8 306.105 1240.51 302.112L1240.63 300.318C1240.63 300.318 1240.48 299.884 1240.19 299.16C1239.01 291 1235.74 287.528 1235.16 287.007C1241.06 291.753 1247.26 296.903 1253.6 301.359C1264.05 308.709 1274.81 313.917 1284.19 315.567C1294.59 317.419 1303.33 314.93 1308.16 306.249C1315.2 293.604 1312.13 275.606 1304.83 261.399C1343.36 252.139 1361.6 217.821 1359.46 161.917Z"
                fill="#F8F3D3" />
            <path
                d="M654.332 292.767C654.737 293.23 655.201 293.664 655.751 294.011C654.766 294.474 653.753 295.921 655.693 300.145C658.732 306.771 684.669 328.271 698.708 341.495C709.274 354.747 730.145 374.105 755.329 379.892H755.358C757.239 380.471 759.179 380.963 761.176 381.397C784.507 386.548 804.423 384.812 812.383 383.712C813.599 384.001 814.844 384.378 816.089 384.898C816.639 385.13 817.189 385.39 817.739 385.709V385.737C820.981 390.367 825.41 394.187 828.623 397.92C835.686 406.079 836.525 426.682 838.407 452.464C840.288 478.245 843.559 521.1 841.909 522.72C840.288 524.34 824.281 524.89 821.849 546.852C820.489 559.092 832.27 568.439 843.038 569.422C843.733 570.377 844.37 571.506 844.775 572.953C843.965 576.28 844.254 579.955 845.904 583.398C847.323 588.752 850.912 591.153 855.775 592.832C856.962 593.41 858.265 593.902 859.654 594.336C872.97 598.474 872.13 590.748 871.841 589.157C876.472 600.297 896.591 603.191 907.33 596.767C924.148 586.755 921.717 576.714 923.888 571.535C926.059 566.384 967.829 549.023 992.811 536.001C1010.7 526.655 1039.3 513.779 1054 507.239C1056.06 508.02 1060.17 506.834 1062.23 506.14C1061.5 507.992 1060.81 509.901 1060.11 511.869C1058.72 515.891 1057.39 519.855 1056.15 523.762C1049.14 545.782 1044.57 565.979 1042.6 585.192C1042.6 585.25 1042.57 585.337 1042.57 585.395C1042.17 587.71 1041.99 589.88 1042.02 591.877C1041.9 593.526 1041.82 595.146 1041.73 596.767C1040.92 613.607 1042.22 629.783 1045.73 645.871C1045.87 646.537 1046.02 647.231 1046.19 647.897C1046.36 649.343 1046.65 650.674 1047.12 651.948C1047.35 652.902 1047.58 653.857 1047.81 654.783C1047.81 654.783 1047.81 654.812 1047.84 654.841C1056.75 690.779 1070.01 714.131 1095.11 716.417C1109.35 717.69 1118.76 710.832 1126.31 702.441V776.401C1157.35 791.013 1168.11 833.318 1168.11 833.318C1168.14 833.173 1168.17 833.028 1168.2 832.884C1168.29 837.282 1170.26 840.87 1176.39 840.783C1192.26 840.58 1189.82 831.234 1199.41 802.125C1208.96 773.044 1228.9 768.154 1228.9 768.154H1216.28C1216.28 768.154 1215.01 768.848 1213.07 769.948C1206.79 772.234 1200.77 775.764 1195.18 780.712C1195.15 780.712 1195.15 780.741 1195.12 780.77C1194.8 781.001 1194.54 781.204 1194.31 781.378C1190.9 784.184 1190.78 780.076 1190.37 774.867V687.047C1215.67 707.678 1234.29 723.477 1256.06 725.531C1272.06 727.036 1286.51 709.472 1294.15 681.288C1294.18 681.231 1294.21 681.202 1294.21 681.202C1297.97 667.399 1300.08 651.05 1300 633.139C1299.97 628.538 1299.77 623.909 1299.42 619.25C1299.39 618.816 1299.36 618.411 1299.33 617.977C1299.94 616.067 1300.17 614.013 1300 611.9C1299.27 603.277 1296.99 596.767 1296.21 594.828C1292.99 576.888 1288.04 559.411 1282.77 544.104C1282.63 543.698 1282.51 543.293 1282.37 542.888C1282.37 541.557 1281.85 539.937 1280.57 537.853C1280.57 537.824 1280.54 537.796 1280.54 537.796C1274.06 519.942 1267.37 505.677 1263.09 498.038C1259.47 491.585 1256.08 486.174 1253.19 481.573L1245.23 468.581C1245.17 468.494 1245.14 468.436 1245.11 468.378C1245.11 468.378 1240.97 465.224 1236.31 465.08C1232.2 464.964 1227.02 467.539 1213.91 468.06C1224.47 467.395 1239.01 464.443 1254.55 459.379C1275.6 452.579 1292.88 443.783 1300.23 436.751C1300.23 436.751 1300.23 436.78 1300.26 436.751C1300.66 436.578 1301.07 436.375 1301.42 436.173C1297.94 439.327 1295.77 443.928 1295.97 450.236C1292.5 449.83 1288.51 450.756 1284.08 454.026C1268.39 465.629 1273.08 494.305 1290.99 498.385C1308.88 502.436 1311.75 489.212 1318.06 490.427C1324.37 491.672 1373.41 525.642 1405.77 551.685C1438.13 577.727 1451.77 589.33 1454.63 600.905C1455.82 605.737 1457.79 612.19 1461.15 618.006C1460.94 620.436 1436.11 657.677 1417.99 684.327C1399.86 710.977 1392.54 720.352 1374.85 728.888C1357.14 737.424 1333.72 749.432 1335.14 761.238C1335.28 762.396 1335.57 763.582 1336.01 764.797C1331.61 759.415 1320.29 761.036 1313.78 774.259C1307.26 787.483 1308.68 793.589 1318.47 802.125C1319.39 802.935 1320.17 803.658 1320.84 804.382C1320.87 804.382 1320.87 804.411 1320.9 804.44C1322.29 806.523 1323.53 808.722 1324.81 810.285C1325.7 812.715 1325.85 815.175 1326.89 818.763V818.792C1327.41 820.557 1328.13 822.611 1329.26 825.042C1334.94 837.398 1361.83 869.082 1373 867.838C1373 867.838 1374.74 869.227 1377.55 871.281C1378.99 873.481 1381.89 874.522 1382.35 874.667C1382.41 874.696 1382.47 874.754 1382.53 874.783C1383.57 875.683 1391.33 882.161 1397 883.348C1401.31 885.402 1405.48 886.849 1408.84 886.965C1416.94 887.225 1417.44 879.007 1407.83 868.851C1407.83 868.851 1431.21 870.066 1421.26 853.196C1419.43 850.129 1417.32 847.554 1414.98 845.297C1414.98 845.297 1434.49 842.606 1427.77 830.019C1425.8 826.344 1421.46 823.074 1416.25 820.267C1416.25 820.267 1432.43 813.525 1422.07 803.34C1419.29 800.62 1415.03 798.826 1410.29 797.669H1410.26L1410.23 797.64C1410.23 797.64 1410.14 797.64 1410.03 797.611H1410C1401.86 795.643 1392.37 795.527 1386.49 795.701H1386.14C1382.93 795.817 1380.88 795.99 1380.88 795.99C1377.03 790.377 1371.93 787.715 1368.69 786.499C1373.81 785.342 1378.3 783.027 1380.07 781.522C1383.39 778.658 1389.5 771.048 1390.98 769.167C1391.04 769.051 1391.15 768.935 1391.24 768.82C1400.53 758.026 1410 743.645 1419.61 730.711C1436.71 707.736 1478.02 659.905 1481.9 653.799C1485.78 647.723 1486.59 643.238 1496.14 650.559C1505.72 657.879 1525.26 657.677 1529.58 644.656C1533.89 631.635 1524.42 621.102 1524.42 621.102C1528.53 615.286 1524.86 605.39 1524.86 605.39C1527.87 602.959 1529.81 599.371 1529.55 594.105C1530.01 588.549 1527.7 582.183 1522.22 576.888C1522.08 576.685 1521.93 576.541 1521.76 576.396C1521.67 576.309 1521.59 576.222 1521.5 576.193C1520.23 574.949 1518.84 573.936 1517.36 573.097C1515.54 571.998 1513.71 571.274 1511.98 570.84C1511.72 570.782 1511.48 570.725 1511.25 570.638C1502.16 568.381 1492.52 571.187 1489.22 575.267C1489.22 575.267 1425.71 527.263 1400.27 509.352C1374.85 491.469 1339.83 469.68 1338.21 466.44C1337.57 465.138 1338.73 462.215 1339.74 458.424C1339.77 458.395 1339.77 458.338 1339.77 458.28C1341.25 452.666 1342.29 445.23 1336.38 438.343C1334.27 435.883 1331.17 433.945 1327.64 432.671C1327.64 432.671 1327.61 432.671 1327.58 432.643C1326.14 431.861 1324.37 431.427 1322.4 431.311C1316.56 430.328 1310.22 430.935 1305.24 433.597C1306.8 431.832 1306.39 430.096 1303.27 428.389C1303.24 428.389 1303.24 428.36 1303.21 428.36C1300.58 425.206 1291.6 424.656 1279.27 426.363C1279.21 426.363 1279.13 426.392 1279.04 426.392C1264.62 427.723 1249.51 431.369 1246.82 432.643C1246.82 432.643 1246.04 433.453 1244.97 434.697C1227.43 440.513 1212.69 447.631 1204.33 453.824C1197.47 439.442 1200.85 417.509 1200.85 417.509C1196.77 418.782 1192.86 419.882 1189.25 420.75H1189.16C1183.63 421.3 1183.34 421.936 1168.69 422.746C1163.34 422.486 1157.81 421.763 1152.08 420.518C1152.08 420.518 1151.85 440.802 1151.18 448.21C1145.68 443.436 1137.98 438.314 1129.06 433.8C1109.18 423.701 1090.68 420.258 1087.7 426.074C1086.45 428.534 1088.16 432.209 1092.04 436.433C1090.71 435.999 1067.81 428.592 1061.99 447.024C1056.03 466.035 1065 467.655 1061.99 472.545C1059.01 477.406 977.874 518.64 953.182 533.31C928.49 547.952 925.248 540.631 917.085 535.741C908.951 530.851 899.456 529.433 897.401 538.664C895.056 531.574 889.354 525.151 882.899 522.459C869.322 516.759 872.854 514.039 872.854 498.298C872.854 482.586 867.701 432.932 866.601 416.12C865.53 399.279 865.791 393.319 868.801 384.378C871.783 375.407 887.241 359.695 873.143 343.694C867.557 337.357 859.654 335.881 852.765 337.617C852.765 337.617 857.483 309.578 838.031 297.367C818.578 285.156 810.444 281.279 802.512 265.625C794.552 249.941 788.444 244.675 782.973 257.291C777.473 269.907 796.202 302.663 791.31 313.022C786.418 323.41 747.542 287.79 735.731 277.025C723.95 266.232 710.721 253.009 695.842 247.713C680.992 242.418 678.358 249.739 682.006 257.494C682.99 259.577 684.958 261.371 687.506 263.107C686.406 262.442 682.729 260.272 678.243 258.362H678.214C671.411 253.935 668.979 253.443 663.595 255.266H663.537C662.958 255.352 662.379 255.468 661.858 255.642C660.816 255.96 659.919 256.394 659.137 256.944C652.016 259.78 652.393 263.802 657.719 268.75C658.616 269.907 659.861 270.978 661.424 271.817C661.453 271.875 661.482 271.875 661.511 271.904C670.195 278.385 658.095 273.148 653.435 284.693C651.611 289.178 651.987 291.436 654.332 292.767Z"
                fill="#F8F3D3" />
            <path
                d="M1197.06 464.123C1197.87 466.612 1201.72 467.943 1207.74 468.174C1208.09 468.203 1208.47 468.203 1208.84 468.174C1210.2 468.232 1211.68 468.203 1213.24 468.087C1213.47 468.087 1213.68 468.087 1213.91 468.058C1224.47 467.393 1239 464.441 1254.55 459.378C1275.59 452.578 1292.88 443.781 1300.23 436.75C1300.23 436.75 1300.23 436.779 1300.26 436.75C1303.18 433.972 1304.51 431.455 1303.88 429.487C1303.73 429.082 1303.53 428.706 1303.21 428.358C1300.58 425.204 1291.6 424.655 1279.27 426.362C1279.21 426.362 1279.13 426.391 1279.04 426.391C1269.66 427.722 1258.34 430.355 1246.39 434.232C1245.89 434.377 1245.43 434.551 1244.97 434.695C1227.43 440.511 1212.69 447.63 1204.33 453.822C1198.94 457.815 1196.19 461.461 1197.06 464.123Z"
                fill="#F8F3D3" />
            <path
                d="M1092.05 436.432C1092.07 436.461 1092.1 436.461 1092.1 436.461C1096.04 440.772 1102.29 445.634 1109.96 450.234C1111.24 450.987 1112.54 451.739 1113.87 452.491C1113.9 452.491 1113.9 452.491 1113.93 452.52C1115.38 453.302 1116.85 454.083 1118.36 454.864C1122.44 456.919 1126.43 458.713 1130.28 460.217C1130.37 460.246 1130.46 460.275 1130.55 460.304C1145.31 465.975 1157.35 467.191 1159.69 462.59C1161.32 459.378 1157.9 454.054 1151.18 448.209C1145.68 443.434 1137.98 438.313 1129.07 433.799C1109.18 423.7 1090.69 420.257 1087.7 426.073C1086.46 428.532 1088.17 432.207 1092.05 436.432Z"
                fill="#F8F3D3" />
            <path
                d="M1152.99 258.703C1152.99 258.703 1158.08 246.903 1152.38 228.997C1146.68 211.095 1129.58 211.503 1121.44 230.829C1113.3 250.158 1114.32 265.213 1122.66 262.977C1131 260.737 1128.56 255.04 1137.53 255.919C1144.52 256.602 1146.68 265.416 1152.99 258.703Z"
                fill="#313131" />
            <path
                d="M1074.01 325.146C1076.91 337.068 1081.34 348.324 1086.03 354.516C1094.94 366.235 1104.03 358.394 1111.5 352.375C1111.56 352.346 1111.59 352.288 1111.64 352.259C1119.11 346.183 1123.69 338.775 1127.13 344.244C1128.14 345.836 1129.45 347.051 1130.84 347.919L1130.87 347.948C1133.44 349.568 1136.34 349.973 1138.19 349.366C1138.36 349.337 1138.51 349.25 1138.68 349.163C1138.88 349.019 1139.09 348.903 1139.29 348.787C1139.38 348.729 1139.46 348.671 1139.52 348.585C1141.23 346.819 1142.97 340.945 1147.1 341.351C1147.92 341.437 1148.81 341.785 1149.83 342.421C1155.33 345.922 1158.02 350.494 1161.2 350.292C1161.61 350.292 1162.01 350.176 1162.45 349.973C1163.72 349.395 1165.31 347.427 1167.17 345.315C1169.02 343.145 1171.1 340.83 1173.33 339.759C1175.33 338.746 1177.44 338.775 1179.55 340.801C1179.58 340.801 1179.58 340.83 1179.58 340.83C1181.67 342.855 1183.84 345.893 1186.33 349.163C1186.36 349.221 1186.39 349.279 1186.41 349.308C1190.79 355.037 1196.11 361.49 1203.61 364.615C1205.52 365.425 1207.58 366.004 1209.78 366.322C1225.75 368.579 1238.98 324.626 1238.98 324.626L1239.5 316.958L1240.52 302.114L1240.63 300.319C1240.63 300.319 1240.49 299.885 1240.2 299.162C1238.84 295.863 1234.32 286.141 1225.41 279.544C1224.54 278.849 1223.64 278.212 1222.69 277.692C1222.34 277.46 1221.99 277.229 1221.64 277.026C1219.36 275.753 1217.24 274.596 1215.25 273.641C1215.19 273.612 1215.13 273.583 1215.07 273.554C1206.19 269.358 1200.14 269.416 1197.01 280.209C1196.66 281.395 1196.34 282.755 1196.05 284.231C1192.7 302.027 1196.89 313.804 1188.12 320.632L1188.06 320.661C1184.53 323.41 1181.9 324.539 1179.87 324.799C1179.64 324.828 1179.41 324.828 1179.18 324.828C1178.66 324.886 1178.19 324.828 1177.76 324.712C1176.02 324.394 1174.84 323.324 1173.85 322.484C1172.4 321.24 1169.89 318.26 1166.47 318.462C1164.94 318.52 1163.2 319.301 1161.32 321.211C1160.94 321.558 1160.54 321.992 1160.13 322.484C1159 323.844 1157.82 324.915 1156.57 325.754C1152.08 328.735 1147.16 328.445 1143.89 327.027C1142.76 326.564 1141.84 325.957 1141.2 325.32C1139.75 323.873 1136.54 321.182 1133.04 319.504C1130.66 318.347 1128.14 317.623 1126 318.086C1124.64 318.347 1123.43 319.099 1122.47 320.459C1117.69 327.172 1118.22 323.642 1113.29 323.208C1110.72 322.976 1108.69 322.253 1107.36 321.616C1106.12 321.038 1105.48 320.546 1105.48 320.546C1105.48 320.546 1105.51 319.07 1105.39 316.726C1105.16 311.865 1104.26 303.213 1101.11 295.719C1099.31 291.465 1096.79 287.559 1093.26 284.955C1080.53 275.579 1072.1 276.476 1070.57 294.098C1070.57 294.214 1070.54 294.359 1070.54 294.503C1069.87 303.068 1071.32 314.382 1074.01 325.146Z"
                fill="#313131" />
            <path
                d="M1171.59 194.836C1174.38 232.374 1194.56 261.475 1216.67 259.834C1238.77 258.194 1254.44 226.434 1251.65 188.895C1248.86 151.357 1228.68 122.256 1206.57 123.894C1184.46 125.534 1168.8 157.297 1171.59 194.836Z"
                fill="#E7E2A0" />
            <path
                d="M1087.37 154.137C1075.1 191.629 1077.17 225.956 1091.99 230.806C1106.82 235.655 1128.79 209.194 1141.06 171.701C1153.34 134.209 1151.27 99.8825 1136.44 95.0329C1121.62 90.1832 1099.65 116.642 1087.37 154.137Z"
                fill="#E7E2A0" />
            <path
                d="M1182.24 453.82C1195.12 451.911 1199.32 439.179 1199.32 439.179C1199.32 439.179 1200.1 433.884 1200.02 425.203C1199.93 416.522 1195.04 420.139 1189.25 420.747H1189.16C1183.63 421.296 1183.34 421.933 1168.7 422.743C1167.94 422.801 1167.16 422.859 1166.35 422.888C1149.36 423.814 1169.33 455.701 1182.24 453.82Z"
                fill="#E7E2A0" />
            <path
                d="M1255.77 448.209C1273.52 444.852 1291.32 440.859 1300.24 436.75C1300.24 436.75 1300.24 436.779 1300.27 436.75C1300.67 436.576 1301.08 436.374 1301.42 436.171C1303.13 435.332 1304.43 434.464 1305.24 433.596C1306.81 431.831 1306.4 430.095 1303.28 428.388C1303.25 428.388 1303.25 428.359 1303.22 428.359C1298.24 425.696 1288.95 425.494 1279.28 426.362C1279.22 426.362 1279.13 426.391 1279.05 426.391C1264.63 427.722 1249.52 431.368 1246.83 432.641C1246.83 432.641 1246.05 433.451 1244.98 434.696C1240.63 439.875 1231.72 452.78 1255.77 448.209Z"
                fill="#E7E2A0" />
            <path
                d="M1216.57 481.572C1236.2 486.23 1252.26 481.832 1253.16 481.572H1253.19L1245.23 468.579C1245.17 468.493 1245.14 468.435 1245.11 468.377C1245.11 468.377 1240.97 465.223 1236.31 465.078C1232.2 464.962 1227.02 467.538 1213.91 468.059C1213.67 468.087 1213.47 468.087 1213.24 468.087C1211.85 468.145 1210.4 468.174 1208.84 468.174C1208.46 468.203 1208.09 468.203 1207.74 468.174C1190 468.03 1196.34 476.739 1216.57 481.572Z"
                fill="#E7E2A0" />
            <path
                d="M1207.6 528.272C1212.58 532.063 1216.92 535.593 1221.14 538.718C1221.2 538.747 1221.26 538.776 1221.29 538.805C1228.12 543.84 1234.78 547.717 1243.81 549.801C1245.49 550.206 1247.25 550.524 1249.14 550.784C1262.63 552.665 1269.63 552.81 1273.86 551.45C1273.86 551.45 1273.89 551.45 1273.94 551.421C1275.22 551.016 1276.2 550.466 1277.07 549.772C1277.19 549.685 1277.27 549.627 1277.39 549.54C1279.91 547.37 1282.37 545.779 1282.37 542.885C1282.37 541.554 1281.85 539.933 1280.57 537.85C1280.57 537.821 1280.54 537.792 1280.54 537.792C1276.75 531.629 1273.91 526.652 1273.57 526.044C1273.91 527.086 1278.29 540.715 1264.59 542.914C1250.35 545.229 1192.98 517.19 1207.6 528.272Z"
                fill="#E7E2A0" />
            <path
                d="M1299.99 449.191C1302.6 451.043 1306.51 448.525 1313.71 452.461C1320.89 456.396 1320.37 465.077 1327.55 467.363C1334.35 469.562 1339.25 459.492 1339.74 458.422C1339.77 458.393 1339.77 458.335 1339.77 458.277C1342.57 442.275 1334.12 436.199 1327.64 432.669C1327.64 432.669 1327.61 432.669 1327.58 432.64C1326.13 431.858 1324.37 431.424 1322.4 431.309C1315.42 430.817 1306.07 434.115 1301.5 439.584C1295.62 446.587 1297.42 447.31 1299.99 449.191Z"
                fill="#E7E2A0" />
            <path
                d="M1497.56 605.387C1498.54 608.309 1500.22 609.756 1502.8 610.19H1502.83C1503.75 610.364 1504.79 610.364 1505.95 610.277H1505.98C1509.31 609.988 1513.59 608.772 1519.01 607.094C1525.43 605.097 1529.05 600.063 1529.54 594.102C1530.01 588.546 1527.69 582.18 1522.22 576.885C1522.08 576.682 1521.93 576.538 1521.76 576.393C1521.67 576.306 1521.58 576.219 1521.5 576.191C1520.22 574.946 1518.83 573.934 1517.36 573.094C1515.53 571.995 1513.71 571.271 1511.97 570.837C1511.71 570.78 1511.48 570.722 1511.25 570.635C1503.61 568.957 1497.56 572.371 1497.56 572.371C1497.56 572.371 1515.22 578.187 1514.12 593.668C1513.04 609.12 1497.56 605.387 1497.56 605.387Z"
                fill="#E7E2A0" />
            <path
                d="M1513.6 626.481C1513.6 626.481 1514.27 642.485 1505.99 643.706C1497.71 644.927 1493.5 632.042 1485.23 639.502C1476.95 646.962 1472.61 646.285 1465.69 637.468C1458.77 628.651 1459.62 622.569 1468.75 627.305C1477.89 632.039 1484.68 631.77 1484.68 631.77C1484.68 631.77 1492.77 630.159 1495.81 628.243C1498.85 626.33 1501.1 623.321 1505.44 625.239C1509.79 627.158 1513.6 626.481 1513.6 626.481Z"
                fill="#E7E2A0" />
            <path
                d="M1123.28 630.821C1123.28 630.821 1120.41 636.868 1116.07 644.016C1123.54 637.447 1123.28 630.821 1123.28 630.821Z"
                fill="#E7E2A0" />
            <path
                d="M1045.92 642.309C1045.87 644.335 1045.92 646.187 1046.18 647.894C1046.36 649.341 1046.65 650.672 1047.11 651.945C1047.78 653.884 1048.82 655.62 1050.29 657.24C1050.32 657.24 1050.32 657.24 1050.32 657.269C1051.37 658.398 1052.61 659.468 1054.14 660.452C1054.29 660.539 1054.41 660.655 1054.55 660.742C1061.64 665.313 1082.14 671.882 1095.42 666.645C1095.45 666.645 1095.48 666.645 1095.51 666.616C1097.19 665.95 1098.87 664.908 1100.52 663.577L1100.6 663.49C1106.34 658.861 1111.89 650.932 1116.06 644.017C1111.89 647.663 1105.35 651.337 1094.99 653.797C1066.07 660.742 1046.13 634.063 1045.92 642.309Z"
                fill="#E7E2A0" />
            <path
                d="M1120.7 594.797C1124.14 592.916 1124.49 591.093 1124.49 591.093C1123.36 592.424 1122.09 593.668 1120.7 594.797Z"
                fill="#E7E2A0" />
            <path
                d="M1042.02 591.874C1042.08 595.028 1042.69 597.748 1043.88 600.034L1043.91 600.063C1045.61 603.39 1048.57 605.792 1052.85 607.21C1052.88 607.21 1052.94 607.239 1052.97 607.239C1061.74 610.046 1101.8 610.422 1120.7 594.796C1116.19 597.314 1106.26 599.947 1084.61 598.674C1046.77 596.446 1044.54 574.455 1042.6 585.19C1042.6 585.248 1042.57 585.334 1042.57 585.392C1042.17 587.707 1042 589.877 1042.02 591.874Z"
                fill="#E7E2A0" />
            <path
                d="M1214.58 598.701C1214.63 598.759 1214.69 598.817 1214.75 598.817C1218.43 601.074 1251.4 621.271 1269.66 628.361C1273.6 629.894 1276.84 630.82 1278.98 630.82C1284.05 630.82 1288.56 629.46 1292.1 627.117C1292.15 627.088 1292.21 627.059 1292.27 627.03C1295.69 624.773 1298.17 621.619 1299.33 617.973C1299.94 616.063 1300.17 614.009 1300 611.896C1299.27 603.273 1296.99 596.763 1296.21 594.824C1296.12 594.564 1296.06 594.39 1296 594.303C1296.35 595.547 1300.43 611.838 1277.56 615.166C1254.55 618.494 1217.12 599.975 1214.58 598.701Z"
                fill="#E7E2A0" />
            <path
                d="M1295.96 663.827C1295.96 663.827 1293.43 678.248 1271.24 675.083C1249.06 671.917 1202.86 631.835 1212.42 645.467C1221.99 659.099 1242.44 675.436 1253.81 680.65C1265.17 685.864 1298.5 699.681 1295.96 663.827Z"
                fill="#E7E2A0" />
            <path
                d="M1129.81 523.687C1129.81 523.687 1141.05 499.59 1127.68 509.561C1114.31 519.529 1117.78 524.778 1093.35 528.971C1068.93 533.161 1052.88 513.8 1057.95 527.244C1063.02 540.687 1098.69 547.58 1129.81 523.687Z"
                fill="#E7E2A0" />
            <path
                d="M1054 507.237C1056.06 508.019 1060.17 506.832 1062.22 506.138C1062.97 505.906 1063.47 505.704 1063.47 505.704C1063.47 505.704 1081.33 466.033 1099.45 467.682C1117.57 469.36 1110.85 472.138 1132.01 475.379C1153.17 478.649 1151.64 466.64 1151.64 466.64C1144.95 466.38 1138.73 464.094 1130.54 460.303C1130.45 460.274 1130.36 460.246 1130.28 460.217C1125.62 458.075 1120.32 455.471 1113.92 452.52C1113.89 452.491 1113.89 452.491 1113.86 452.491C1112.27 451.767 1110.74 451.073 1109.23 450.494C1093.75 444.157 1081.99 444.215 1074 456.455C1065.26 469.881 1073.4 478.649 1058.34 496.126C1051.95 503.563 1051.92 506.427 1054 507.237Z"
                fill="#E7E2A0" />
            <path
                d="M837.311 559.06C837.456 564.963 840.756 566.41 843.043 569.419C843.737 570.374 844.374 571.502 844.78 572.949C845.04 574.02 845.214 575.293 845.185 576.827C845.156 579.431 845.387 581.601 845.908 583.395C847.327 588.748 850.916 591.15 855.779 592.828C862.321 595.056 860.295 590.397 859.658 581.167C859.022 571.965 871.961 560.97 871.961 560.97C871.99 560.999 872.019 560.999 872.048 560.999C873.321 561.346 886.724 564.76 879.371 550.524C871.642 535.593 875.84 549.019 862.553 539.528C849.237 530.037 846.401 530.587 847.616 545.634C848.832 560.709 837.08 549.887 837.311 559.06Z"
                fill="#E7E2A0" />
            <path
                d="M698.714 341.493C709.279 354.746 730.15 374.104 755.334 379.891H755.363C780.518 385.649 794.355 384.637 794.355 384.637C794.355 384.637 803.01 381.396 812.389 383.711C813.605 384 814.849 384.376 816.094 384.897C816.644 385.129 817.194 385.389 817.744 385.707V385.736C823.939 389.238 829.786 397.658 833.028 402.953C833.028 402.953 840.352 393.578 826.312 378.936C819.857 372.194 817.57 369.243 814.01 368.143C809.813 366.812 803.849 368.028 787.234 368.577C756.521 369.59 688.119 328.27 698.714 341.493Z"
                fill="#E7E2A0" />
            <path
                d="M654.337 292.764C654.742 293.227 655.205 293.661 655.755 294.008C660.56 297.48 670.142 298.349 678.565 298.638C680.331 298.696 681.489 298.667 682.184 298.58C686.844 297.857 671.879 293.69 684.239 289.639C698.481 284.951 709.857 296.728 708.265 290.854V290.825C706.644 284.893 703.17 281.479 690.984 274.158C679.173 267.098 700.391 271.004 701.868 271.265C701.665 271.149 701.491 271.033 701.289 270.946C698.22 269.442 685.571 263.134 678.247 258.359H678.218C671.415 253.932 668.984 253.44 663.6 255.263H663.542C662.326 255.697 660.937 256.218 659.315 256.854C659.258 256.883 659.2 256.912 659.142 256.941C652.021 259.777 652.397 263.799 657.723 268.747C658.765 269.76 660.01 270.773 661.429 271.814C661.458 271.872 661.487 271.872 661.515 271.901C670.2 278.383 658.1 273.145 653.439 284.691C652.05 288.192 652.542 290.796 654.337 292.764Z"
                fill="#E7E2A0" />
            <path
                d="M1148.34 115.464C1148.34 115.464 1141.56 98.2529 1124.29 115.464C1104.61 135.068 1074.73 230.825 1103.78 229.098C1107.99 228.849 1112.03 224.486 1115.84 220.86C1138.33 199.459 1152.91 130.421 1148.34 115.464Z"
                fill="#313131" />
            <path
                d="M1223.76 128.874C1223.76 128.874 1197.36 113.934 1191.66 162.92C1185.96 211.905 1188.11 253.197 1210.03 259.406C1231.96 265.619 1250.27 238.978 1251.9 201.13C1253.53 163.281 1237.14 136.38 1223.76 128.874Z"
                fill="#313131" />
            <path
                d="M1243.09 462.792C1243.23 464.297 1243.93 466.12 1245.11 468.377C1245.14 468.434 1245.17 468.492 1245.23 468.579C1247 471.936 1249.75 476.16 1253.16 481.571H1253.19C1256.08 486.172 1259.47 491.583 1263.09 498.036C1267.37 505.675 1274.06 519.94 1280.54 537.794C1280.54 537.794 1280.57 537.823 1280.57 537.852C1281.18 539.501 1281.76 541.179 1282.37 542.886C1282.51 543.291 1282.63 543.697 1282.77 544.102C1288.04 559.409 1292.99 576.886 1296.21 594.826C1297.59 602.494 1298.67 610.249 1299.33 617.975C1299.36 618.409 1299.39 618.814 1299.42 619.248C1299.77 623.907 1299.97 628.537 1300 633.137C1300.08 651.049 1297.97 667.397 1294.21 681.2C1294.21 681.2 1294.18 681.229 1294.15 681.287C1286.51 709.47 1272.06 727.034 1256.06 725.53C1234.29 723.475 1215.67 707.676 1190.37 687.045C1187.91 685.048 1185.37 682.965 1182.76 680.882C1182.36 680.563 1181.98 680.245 1181.6 679.984C1181.52 679.898 1181.43 679.811 1181.34 679.782C1180.91 679.435 1180.5 679.116 1180.1 678.798C1179.69 678.509 1179.29 678.19 1178.88 677.93C1176.6 676.252 1174.4 674.834 1172.28 673.59C1149.18 660.134 1135.29 669.481 1135.29 669.481"
                stroke="#313131" stroke-width="6.15177" stroke-miterlimit="10"
                stroke-linecap="round" stroke-linejoin="round" />
            <path
                d="M1197.06 464.123C1197.87 466.612 1201.72 467.943 1207.74 468.174C1208.09 468.203 1208.47 468.203 1208.84 468.174C1210.2 468.232 1211.68 468.203 1213.24 468.087C1213.47 468.087 1213.68 468.087 1213.91 468.058C1224.47 467.393 1239 464.441 1254.55 459.378C1275.59 452.578 1292.88 443.781 1300.23 436.75C1300.23 436.75 1300.23 436.779 1300.26 436.75C1303.18 433.972 1304.51 431.455 1303.88 429.487C1303.73 429.082 1303.53 428.706 1303.21 428.358C1300.58 425.204 1291.6 424.655 1279.27 426.362C1279.21 426.362 1279.13 426.391 1279.04 426.391C1269.66 427.722 1258.34 430.355 1246.39 434.232C1245.89 434.377 1245.43 434.551 1244.97 434.695C1227.43 440.511 1212.69 447.63 1204.33 453.822C1198.94 457.815 1196.19 461.461 1197.06 464.123Z"
                stroke="#313131" stroke-width="6.15177" stroke-miterlimit="10"
                stroke-linecap="round" stroke-linejoin="round" />
            <path
                d="M1092.05 436.432C1092.07 436.461 1092.1 436.461 1092.1 436.461C1096.04 440.772 1102.29 445.634 1109.96 450.234C1111.24 450.987 1112.54 451.739 1113.87 452.491C1113.9 452.491 1113.9 452.491 1113.93 452.52C1115.38 453.302 1116.85 454.083 1118.36 454.864C1122.44 456.919 1126.43 458.713 1130.28 460.217C1130.37 460.246 1130.46 460.275 1130.55 460.304C1145.31 465.975 1157.35 467.191 1159.69 462.59C1161.32 459.378 1157.9 454.054 1151.18 448.209C1145.68 443.434 1137.98 438.313 1129.07 433.799C1109.18 423.7 1090.69 420.257 1087.7 426.073C1086.46 428.532 1088.17 432.207 1092.05 436.432Z"
                stroke="#313131" stroke-width="6.15177" stroke-miterlimit="10"
                stroke-linecap="round" stroke-linejoin="round" />
            <path
                d="M1172.29 673.59C1172.29 673.59 1157.82 670.031 1144.79 680.882C1140.59 684.384 1136.74 689.563 1132.57 694.916C1132.49 695.032 1132.4 695.148 1132.31 695.234C1131.53 696.247 1130.75 697.231 1129.94 698.215C1129.88 698.302 1129.82 698.388 1129.77 698.446C1128.64 699.806 1127.51 701.137 1126.32 702.439C1118.77 710.831 1109.36 717.689 1095.12 716.416C1070.02 714.13 1056.76 690.778 1047.85 654.84C1047.82 654.811 1047.82 654.782 1047.82 654.782C1047.58 653.856 1047.35 652.901 1047.12 651.946C1046.8 650.615 1046.48 649.255 1046.2 647.895C1046.02 647.23 1045.88 646.535 1045.73 645.87C1042.23 629.782 1040.93 613.606 1041.74 596.766C1041.82 595.145 1041.91 593.525 1042.03 591.876C1042.17 589.647 1042.37 587.419 1042.61 585.191C1044.57 565.978 1049.15 545.781 1056.15 523.76C1057.4 519.854 1058.73 515.89 1060.12 511.868C1060.81 509.9 1061.51 507.99 1062.23 506.139C1062.64 505.097 1063.04 504.084 1063.45 503.1L1063.48 503.071C1080.01 463.313 1104.73 452.231 1109.24 450.495C1109.71 450.321 1109.97 450.234 1109.97 450.234"
                stroke="#313131" stroke-width="6.15177" stroke-miterlimit="10"
                stroke-linecap="round" stroke-linejoin="round" />
            <path
                d="M1047.8 654.781C1047.8 654.781 1047.8 654.81 1047.83 654.839C1048.03 655.041 1048.9 655.938 1050.29 657.24C1050.32 657.24 1050.32 657.24 1050.32 657.269C1051.33 658.166 1052.63 659.266 1054.14 660.452C1054.28 660.539 1054.4 660.655 1054.54 660.742C1062.27 666.587 1075.88 673.907 1090.79 668.67C1092.38 668.091 1093.94 667.426 1095.42 666.644C1095.45 666.644 1095.48 666.644 1095.5 666.615C1097.24 665.718 1098.92 664.706 1100.51 663.577C1100.54 663.548 1100.57 663.519 1100.6 663.49C1117.39 651.685 1126.3 629.057 1126.3 629.057"
                stroke="#313131" stroke-width="6.15177" stroke-miterlimit="10"
                stroke-linecap="round" stroke-linejoin="round" />
            <path
                d="M1127.67 591.079C1127.67 591.079 1110.85 604.913 1080.45 610.067C1050.06 615.223 1041.71 596.779 1041.71 596.779"
                stroke="#313131" stroke-width="6.15177" stroke-miterlimit="10"
                stroke-linecap="round" stroke-linejoin="round" />
            <path
                d="M1136.64 517.834C1136.64 517.834 1115.47 539.264 1088.61 540.077C1061.74 540.893 1056.14 523.76 1056.14 523.76"
                stroke="#313131" stroke-width="6.15177" stroke-miterlimit="10"
                stroke-linecap="round" stroke-linejoin="round" />
            <path
                d="M1282.79 544.1C1282.79 544.1 1273.96 560.697 1244.65 550.119C1215.34 539.537 1189.83 515.395 1189.83 515.395"
                stroke="#313131" stroke-width="6.15177" stroke-miterlimit="10"
                stroke-linecap="round" stroke-linejoin="round" />
            <path
                d="M1299.42 619.255C1299.42 619.255 1294.04 633.671 1272.33 629.058C1250.62 624.446 1201.23 589.723 1201.23 589.723"
                stroke="#313131" stroke-width="6.15177" stroke-miterlimit="10"
                stroke-linecap="round" stroke-linejoin="round" />
            <path
                d="M1203.14 639.649C1203.14 639.649 1212.35 648.793 1224.39 659.036C1224.45 659.065 1224.48 659.123 1224.54 659.181C1233.62 666.878 1244.31 675.182 1253.8 680.651C1256.9 682.416 1259.82 683.892 1262.57 684.934C1284.05 693.209 1293.34 682.3 1294.15 681.288C1294.18 681.23 1294.21 681.201 1294.21 681.201"
                stroke="#313131" stroke-width="6.15177" stroke-miterlimit="10"
                stroke-linecap="round" stroke-linejoin="round" />
            <path
                d="M1494.52 603.158C1496.46 604.75 1498.08 607.123 1499.24 609.843C1500.92 613.778 1501.53 618.466 1500.46 622.545C1500.14 623.732 1499.71 624.86 1499.13 625.902C1496.9 629.808 1492.58 632.615 1485.38 632.847C1478.43 633.049 1473.02 630.821 1468.76 627.291C1465.63 624.716 1463.15 621.475 1461.15 618.003C1457.79 612.186 1455.82 605.734 1454.63 600.901C1451.77 589.327 1438.13 577.724 1405.77 551.682C1373.41 525.639 1324.37 491.669 1318.06 490.424C1311.75 489.209 1308.89 502.433 1291 498.382C1273.08 494.302 1268.39 465.626 1284.08 454.023C1288.51 450.753 1292.5 449.827 1295.98 450.232C1304.78 451.216 1310.13 460.534 1310.13 460.534"
                stroke="#313131" stroke-width="6.15177" stroke-miterlimit="10"
                stroke-linecap="round" stroke-linejoin="round" />
            <path
                d="M1295.98 450.237C1295.78 443.929 1297.95 439.328 1301.42 436.174C1302.58 435.161 1303.85 434.264 1305.24 433.599C1310.22 430.937 1316.56 430.329 1322.41 431.313C1324.2 431.631 1325.94 432.065 1327.59 432.644C1327.62 432.673 1327.65 432.673 1327.65 432.673C1331.18 433.946 1334.28 435.885 1336.39 438.344C1342.3 445.231 1341.25 452.668 1339.78 458.281C1339.78 458.339 1339.78 458.397 1339.75 458.426C1338.74 462.216 1337.58 465.139 1338.21 466.441C1339.84 469.682 1374.86 491.471 1400.28 509.353C1425.72 527.264 1489.23 575.269 1489.23 575.269C1492.53 571.189 1502.17 568.382 1511.26 570.639C1511.49 570.726 1511.72 570.784 1511.98 570.842C1513.84 571.363 1515.66 572.115 1517.37 573.099C1518.84 573.938 1520.23 574.951 1521.51 576.195C1521.77 576.397 1522 576.629 1522.23 576.889C1525.21 579.928 1527.62 584.152 1528.92 589.737C1529.29 591.328 1529.5 592.775 1529.55 594.106C1529.82 599.372 1527.88 602.96 1524.87 605.391C1519.8 609.5 1511.72 610.281 1505.99 610.281H1505.96C1504.8 610.281 1503.76 610.223 1502.84 610.194H1502.81C1500.81 610.05 1499.48 609.876 1499.25 609.847H1499.22"
                stroke="#313131" stroke-width="6.15177" stroke-miterlimit="10"
                stroke-linecap="round" stroke-linejoin="round" />
            <path
                d="M1500.46 622.55C1514.88 627.267 1521.56 625.183 1524.43 621.103C1528.54 615.287 1524.86 605.391 1524.86 605.391"
                stroke="#313131" stroke-width="6.15177" stroke-miterlimit="10"
                stroke-linecap="round" stroke-linejoin="round" />
            <path
                d="M1461.15 618.007C1460.94 620.437 1436.11 657.678 1417.99 684.328C1399.86 710.978 1392.54 720.353 1374.85 728.889C1357.14 737.425 1333.72 749.433 1335.14 761.239C1335.28 762.397 1335.57 763.583 1336.01 764.798C1337.4 768.705 1340.23 772.756 1343.94 776.228V776.257C1344.11 776.402 1344.29 776.575 1344.46 776.749C1344.52 776.807 1344.6 776.865 1344.66 776.894C1350.39 782.044 1358.01 785.748 1365.62 785.603H1365.71C1367.13 785.545 1368.57 785.372 1369.96 785.054C1376.82 783.491 1383.83 777.414 1390.98 769.168C1391.04 769.052 1391.15 768.936 1391.24 768.821C1400.53 758.027 1410 743.646 1419.61 730.712C1436.71 707.737 1478.02 659.906 1481.9 653.8C1485.78 647.724 1486.59 643.239 1496.14 650.56C1505.72 657.88 1525.26 657.678 1529.58 644.657C1533.89 631.636 1524.42 621.103 1524.42 621.103"
                stroke="#313131" stroke-width="6.15177" stroke-miterlimit="10"
                stroke-linecap="round" stroke-linejoin="round" />
            <path
                d="M840.031 361.315C839.249 359.839 838.728 358.393 838.41 356.975C836.326 347.657 843.649 339.874 852.768 337.617C859.657 335.88 867.56 337.356 873.147 343.693C887.244 359.695 871.786 375.407 868.804 384.377C865.794 393.318 865.533 399.279 866.604 416.12C867.704 432.931 872.857 482.585 872.857 498.297C872.857 514.039 869.325 516.759 882.902 522.459C889.357 525.15 895.059 531.574 897.404 538.663V538.692C900.009 546.534 898.533 555.156 889.415 560.423C887.388 561.609 885.333 562.304 883.249 562.593C879.457 563.143 875.665 562.419 872.047 561.002C872.018 561.002 871.989 561.002 871.96 560.973C867.328 559.121 863.073 556.111 859.657 553.218C854.823 549.109 851.697 545.231 851.697 545.231"
                stroke="#313131" stroke-width="6.15177" stroke-miterlimit="10"
                stroke-linecap="round" stroke-linejoin="round" />
            <path
                d="M859.656 553.215C859.598 564.298 853.375 569.101 845.993 569.506C845.038 569.564 844.025 569.535 843.041 569.419C832.272 568.436 820.491 559.089 821.851 546.849C824.283 524.887 840.291 524.337 841.912 522.717C843.562 521.097 840.291 478.242 838.409 452.461C836.528 426.679 835.688 406.076 828.625 397.917C825.412 394.184 820.983 390.364 817.741 385.735V385.706C814.354 380.931 812.27 375.347 814.007 368.141C814.267 367.071 814.615 365.971 815.049 364.843C821.301 348.552 838.409 356.972 838.409 356.972"
                stroke="#313131" stroke-width="6.15177" stroke-miterlimit="10"
                stroke-linecap="round" stroke-linejoin="round" />
            <path
                d="M897.403 538.692V538.663C899.459 529.432 908.953 530.85 917.087 535.74C925.25 540.631 928.492 547.951 953.184 533.31C977.876 518.639 1059.02 477.406 1062 472.545C1065.01 467.654 1056.03 466.034 1062 447.023C1067.81 428.591 1090.71 435.999 1092.04 436.433C1092.07 436.462 1092.1 436.462 1092.1 436.462"
                stroke="#313131" stroke-width="6.15177" stroke-miterlimit="10"
                stroke-linecap="round" stroke-linejoin="round" />
            <path
                d="M883.252 562.593C871.528 573.965 869.212 582.877 871.847 589.156C876.478 600.296 896.596 603.19 907.336 596.766C924.154 586.754 921.723 576.713 923.894 571.534C926.065 566.383 967.835 549.022 992.817 536.001C1010.71 526.654 1039.31 513.778 1054.01 507.238C1059.51 504.808 1063.07 503.245 1063.45 503.101L1063.48 503.072"
                stroke="#313131" stroke-width="6.15177" stroke-miterlimit="10"
                stroke-linecap="round" stroke-linejoin="round" />
            <path
                d="M845.995 569.508C845.445 570.579 845.04 571.736 844.779 572.951C843.969 576.279 844.258 579.954 845.908 583.397C847.587 587.072 850.8 590.457 855.779 592.83C856.966 593.409 858.268 593.901 859.658 594.335C872.974 598.473 872.134 590.747 871.845 589.155C871.816 588.982 871.787 588.895 871.787 588.895"
                stroke="#313131" stroke-width="6.15177" stroke-miterlimit="10"
                stroke-linecap="round" stroke-linejoin="round" />
            <path
                d="M1304.8 261.397H1304.83C1343.35 252.138 1361.59 217.82 1359.45 161.916C1357.25 106.04 1298.11 -10.0793 1174.36 22.5025C1050.61 55.0265 1054.14 183.357 1057.12 195.018C1060.11 206.679 1051.42 201.268 1040.28 206.419C1029.16 211.569 1007.19 229.741 1021.03 259.024C1034.86 288.336 1062.83 271.235 1085.06 278.296C1087.23 278.99 1089.11 279.887 1090.79 280.987C1096.23 284.517 1099.24 289.928 1101.1 295.715C1103.5 303.152 1103.99 311.196 1105.38 316.722C1105.87 318.748 1106.48 320.426 1107.35 321.613C1107.52 321.844 1107.7 322.047 1107.87 322.249C1109.2 323.638 1111.26 324.622 1113.8 325.316H1113.86"
                stroke="#313131" stroke-width="6.15177" stroke-miterlimit="10"
                stroke-linecap="round" stroke-linejoin="round" />
            <path
                d="M1188.7 319.994C1188.76 319.907 1188.79 319.849 1188.84 319.821C1188.87 319.792 1188.87 319.763 1188.87 319.763C1189.57 318.692 1190.15 317.506 1190.64 316.146C1195.5 302.43 1191.68 290.364 1197.01 280.207C1197.61 279.021 1198.4 277.835 1199.29 276.706C1203.55 271.382 1208.9 271.035 1215.07 273.552C1215.13 273.581 1215.19 273.61 1215.24 273.639C1217.3 274.478 1219.41 275.607 1221.64 277.024C1221.99 277.227 1222.34 277.458 1222.68 277.69C1223.58 278.24 1224.48 278.876 1225.4 279.542C1228.53 281.712 1231.74 284.258 1235.07 286.92C1235.07 286.92 1235.1 286.949 1235.16 287.007C1241.06 291.753 1247.26 296.903 1253.6 301.359C1264.05 308.709 1274.82 313.918 1284.2 315.567C1294.59 317.419 1303.33 314.93 1308.16 306.25C1315.2 293.605 1312.13 275.607 1304.83 261.399H1304.81C1302.58 256.972 1299.91 252.95 1297.02 249.535C1284.8 235.183 1276.67 224.303 1276.67 224.303"
                stroke="#313131" stroke-width="6.15177" stroke-miterlimit="10"
                stroke-linecap="round" stroke-linejoin="round" />
            <path
                d="M1053.45 277.023C1053.45 277.023 1051.02 294.5 1053.45 315.565C1055.91 336.631 1056.92 363.28 1089.28 388.715C1112.01 406.569 1133.05 416.407 1152.07 420.516C1157.8 421.76 1163.33 422.483 1168.69 422.744C1170.89 422.888 1173.03 422.917 1175.17 422.888C1178.85 422.83 1183.65 422.078 1189.15 420.747H1189.24C1192.86 419.879 1196.76 418.779 1200.85 417.506C1232.34 407.61 1275.3 386.342 1280.19 372.424C1286.7 353.905 1284.19 315.565 1284.19 315.565"
                stroke="#313131" stroke-width="6.15177" stroke-miterlimit="10"
                stroke-linecap="round" stroke-linejoin="round" />
            <path d="M1200.85 417.506C1200.85 417.506 1197.47 439.439 1204.33 453.82"
                stroke="#313131" stroke-width="6.15177" stroke-miterlimit="10"
                stroke-linecap="round" stroke-linejoin="round" />
            <path d="M1152.09 420.517C1152.09 420.517 1151.85 440.801 1151.19 448.209"
                stroke="#313131" stroke-width="6.15177" stroke-miterlimit="10"
                stroke-linecap="round" stroke-linejoin="round" />
            <path
                d="M1090.8 280.988C1085.82 278.354 1071.78 274.766 1070.68 287.788C1070.54 289.379 1070.51 291.52 1070.57 294.096C1070.74 301.966 1071.81 313.743 1074.01 325.144C1076.82 340.017 1081.51 354.311 1088.37 358.709C1098.47 365.162 1104.64 359.346 1111.5 352.372C1111.55 352.343 1111.58 352.286 1111.64 352.257C1114.13 349.71 1116.71 347.048 1119.6 344.762C1127.97 338.165 1127.97 344.386 1130.83 347.916L1130.86 347.945C1131.76 349.045 1132.98 349.884 1134.77 349.971C1136.13 350.029 1137.26 349.826 1138.19 349.363C1138.36 349.334 1138.5 349.247 1138.68 349.161C1138.88 349.016 1139.08 348.9 1139.29 348.784C1142.44 346.585 1143.54 342.158 1147.1 341.348C1147.42 341.261 1147.77 341.203 1148.11 341.203C1154.02 341.001 1152.89 346.99 1160.01 349.971C1160.42 350.144 1160.82 350.26 1161.2 350.289C1163.89 350.694 1165.37 348.061 1167.16 345.312C1168.7 342.91 1170.43 340.422 1173.33 339.756C1174.43 339.496 1175.7 339.496 1177.21 339.872C1178.07 340.075 1178.86 340.393 1179.55 340.798C1179.58 340.798 1179.58 340.827 1179.58 340.827C1182.65 342.505 1184.44 345.659 1186.32 349.161C1186.35 349.218 1186.38 349.276 1186.41 349.305C1189.42 354.977 1192.64 361.458 1201.44 364.091C1202.16 364.294 1202.88 364.497 1203.61 364.612C1218.22 367.506 1229.49 354.166 1237.45 325.838C1238.34 322.655 1239.01 319.675 1239.5 316.955C1240.6 310.994 1240.8 306.104 1240.51 302.111C1240.43 301.069 1240.34 300.085 1240.2 299.159C1239.01 290.999 1235.74 287.527 1235.16 287.006C1235.1 286.948 1235.07 286.919 1235.07 286.919"
                stroke="#313131" stroke-width="6.15177" stroke-miterlimit="10"
                stroke-linecap="round" stroke-linejoin="round" />
            <path
                d="M1330.07 110.791C1330.07 110.791 1322.95 97.3618 1307.48 112.825C1292.01 128.288 1283.37 159.655 1285.29 198.684"
                stroke="#313131" stroke-width="6.15177" stroke-miterlimit="10"
                stroke-linecap="round" stroke-linejoin="round" />
            <path
                d="M1252.72 126.455C1252.72 126.455 1256.59 92.2731 1236.24 82.9153C1215.88 73.5574 1200.41 97.5655 1200.41 97.5655"
                stroke="#313131" stroke-width="6.15177" stroke-miterlimit="10"
                stroke-linecap="round" stroke-linejoin="round" />
            <path
                d="M1151.97 90.8516C1151.97 90.8516 1152.38 64.8093 1139.35 59.9249C1126.32 55.0434 1107.6 90.8516 1107.6 90.8516"
                stroke="#313131" stroke-width="6.15177" stroke-miterlimit="10"
                stroke-linecap="round" stroke-linejoin="round" />
            <path
                d="M1171.59 194.836C1174.38 232.374 1194.56 261.475 1216.67 259.834C1238.77 258.194 1254.44 226.434 1251.65 188.895C1248.86 151.357 1228.68 122.256 1206.57 123.894C1184.46 125.534 1168.8 157.297 1171.59 194.836Z"
                stroke="#313131" stroke-width="6.15177" stroke-miterlimit="10"
                stroke-linecap="round" stroke-linejoin="round" />
            <path
                d="M1087.37 154.137C1075.1 191.629 1077.17 225.956 1091.99 230.806C1106.82 235.655 1128.79 209.194 1141.06 171.701C1153.34 134.209 1151.27 99.8825 1136.44 95.0329C1121.62 90.1832 1099.65 116.642 1087.37 154.137Z"
                stroke="#313131" stroke-width="6.15177" stroke-miterlimit="10"
                stroke-linecap="round" stroke-linejoin="round" />
            <path
                d="M1152.99 258.703C1152.99 258.703 1158.08 246.903 1152.38 228.997C1146.68 211.095 1129.58 211.503 1121.44 230.829C1113.3 250.158 1114.32 265.213 1122.66 262.977C1131 260.737 1128.56 255.04 1137.53 255.919C1144.52 256.602 1146.68 265.416 1152.99 258.703Z"
                stroke="#313131" stroke-width="6.15177" stroke-miterlimit="10"
                stroke-linecap="round" stroke-linejoin="round" />
            <path
                d="M1188.88 319.757C1188.88 319.757 1183.31 327.266 1175.03 324.01C1166.76 320.755 1166.21 313.764 1160.92 321.736C1155.63 329.708 1143.28 328.759 1137.86 324.01C1132.43 319.265 1130.8 315.874 1126.32 317.908C1120.73 320.448 1124.51 326.751 1113.82 325.312"
                stroke="#313131" stroke-width="6.15177" stroke-miterlimit="10"
                stroke-linecap="round" stroke-linejoin="round" />
            <path
                d="M738.797 300.203C730.055 294.705 723.948 289.642 713.353 279.456C709.966 276.215 705.913 273.582 701.861 271.267C701.658 271.151 701.485 271.036 701.282 270.949C696.39 268.171 691.527 265.827 687.822 263.31C687.822 263.31 687.706 263.252 687.503 263.107C684.956 261.371 682.987 259.577 682.003 257.494C678.356 249.739 680.99 242.418 695.84 247.713C710.719 253.009 723.948 266.232 735.729 277.025C747.539 287.79 786.415 323.41 791.307 313.022C796.2 302.663 777.471 269.907 782.971 257.291C788.442 244.675 794.55 249.941 802.51 265.625C810.441 281.279 818.576 285.156 838.028 297.367C857.481 309.578 852.762 337.617 852.762 337.617"
                stroke="#313131" stroke-width="6.15177" stroke-miterlimit="10"
                stroke-linecap="round" stroke-linejoin="round" />
            <path
                d="M730.062 314.236C730.062 314.236 722.71 307.928 710.089 292.882C709.51 292.187 708.902 291.493 708.265 290.856V290.827C695.876 277.69 679.752 276.07 666.958 273.755C664.845 273.379 663.021 272.713 661.516 271.903C661.487 271.874 661.458 271.874 661.429 271.816C659.866 270.977 658.621 269.907 657.724 268.749C654.597 264.785 655.176 259.634 659.142 256.943C659.924 256.394 660.821 255.959 661.863 255.641C662.384 255.468 662.963 255.352 663.542 255.265H663.6C668.029 254.686 673.558 256.394 678.218 258.361H678.247C682.734 260.271 686.41 262.441 687.51 263.107C687.713 263.251 687.829 263.309 687.829 263.309"
                stroke="#313131" stroke-width="6.15177" stroke-miterlimit="10"
                stroke-linecap="round" stroke-linejoin="round" />
            <path
                d="M718.305 321.848C718.305 321.848 699.692 304.66 682.179 298.583C680.268 297.918 678.358 297.368 676.505 297.021C667.589 295.285 660.932 294.879 656.879 293.78C655.866 293.519 655.026 293.201 654.332 292.767C651.987 291.436 651.611 289.179 653.434 284.694C657.921 273.756 677.142 275.579 677.142 275.579"
                stroke="#313131" stroke-width="6.15177" stroke-miterlimit="10"
                stroke-linecap="round" stroke-linejoin="round" />
            <path
                d="M816.094 383.132C816.094 383.132 814.791 383.393 812.389 383.711C804.428 384.81 784.512 386.547 761.181 381.396C759.184 380.962 757.244 380.47 755.363 379.891H755.334C728.5 372.079 711.826 353.878 698.713 341.493C684.674 328.27 658.737 306.77 655.698 300.144C653.758 295.919 654.771 294.473 655.756 294.01C656.335 293.749 656.885 293.778 656.885 293.778"
                stroke="#313131" stroke-width="6.15177" stroke-miterlimit="10"
                stroke-linecap="round" stroke-linejoin="round" />
        </g>
    </g>
    <defs>
        <clipPath id="clip0_2269_7760">
            <rect width="1540" height="1452" fill="white" />
        </clipPath>
    </defs>
</svg>
    