<svg width="246" height="76" viewBox="0 0 246 76" fill="none" xmlns="http://www.w3.org/2000/svg">
    <rect width="246" height="76" rx="38" fill="#F18805" />
    <path
        d="M64.9398 43H55.9291C55.461 37.773 54.1348 33.1312 51.9504 29.0744C50.5461 32.273 49.844 35.2116 49.844 37.8901C49.844 39.7104 50.1821 41.4137 50.8582 43H40.7163C40.5343 41.9338 40.4433 40.5035 40.4433 38.7092C40.4433 36.9149 40.6903 35.1726 41.1844 33.4822C43.0828 32.9361 44.9031 32.013 46.6454 30.7127C48.3877 29.3865 49.636 27.9822 50.3901 26.4999C49.818 25.5898 49.0769 24.5886 48.1667 23.4964H61.0781C63.6526 29.0354 64.9398 35.5366 64.9398 43ZM71.301 42.883C68.9866 39.9184 67.8294 36.8759 67.8294 33.7553C67.8294 30.6347 69.1296 27.9952 71.7301 25.8368C74.3306 23.6784 77.6592 22.5992 81.716 22.5992C83.8744 22.5992 86.0198 22.9243 88.1521 23.5744C90.0245 25.9408 90.9607 28.4763 90.9607 31.1808C90.9607 34.5874 89.5694 37.552 86.7869 40.0745C84.0044 42.5969 80.6368 43.8582 76.684 43.8582C74.9937 43.8582 73.1994 43.5331 71.301 42.883ZM77.2301 25.9929C76.32 27.5531 75.8649 29.3865 75.8649 31.4929C75.8649 33.5993 76.32 35.5496 77.2301 37.344C78.1663 39.1123 79.4405 40.3865 81.0528 41.1667C82.2751 39.6064 82.8862 37.799 82.8862 35.7447C82.8862 33.6903 82.3791 31.7789 81.3649 30.0106C80.3767 28.2423 78.9985 26.903 77.2301 25.9929ZM118.664 23.4964L118.742 26.812C118.742 31.8829 118.248 37.2789 117.259 43H107.937C108.535 38.7612 108.834 34.5484 108.834 30.3617C108.834 28.9054 108.795 27.4621 108.717 26.0319H108.054C106.571 26.0319 105.336 26.1099 104.348 26.2659V27.5141C104.348 32.7411 103.906 37.9031 103.022 43H94.1282C94.4922 40.2175 94.6743 37.1749 94.6743 33.8723C94.6743 30.5697 94.4402 27.1111 93.9721 23.4964H118.664ZM147.967 42.6879V43H138.918C138.814 41.5177 138.593 39.9834 138.254 38.3971C136.642 40.0355 134.822 41.5697 132.793 43H123.705C123.523 41.9338 123.432 40.5295 123.432 38.7872C123.432 37.0189 123.692 35.2506 124.212 33.4822C126.084 32.9361 127.879 32.013 129.595 30.7127C131.337 29.4125 132.598 28.0082 133.379 26.4999C132.676 25.4077 131.935 24.4066 131.155 23.4964H144.106C146.68 29.0874 147.967 35.4846 147.967 42.6879ZM137.552 35.5496C136.876 33.2352 135.992 31.0508 134.9 28.9964C133.678 32.5851 132.976 35.9787 132.793 39.1773C134.666 38.2151 136.252 37.0059 137.552 35.5496Z"
        fill="#140400" />
    <path
        d="M201.532 42.6879V43H192.482C192.378 41.5177 192.157 39.9834 191.819 38.3971C190.207 40.0355 188.387 41.5697 186.358 43H177.27C177.088 41.9338 176.997 40.5295 176.997 38.7872C176.997 37.0189 177.257 35.2506 177.777 33.4822C179.649 32.9361 181.443 32.013 183.16 30.7127C184.902 29.4125 186.163 28.0082 186.943 26.4999C186.241 25.4077 185.5 24.4066 184.72 23.4964H197.67C200.245 29.0874 201.532 35.4846 201.532 42.6879ZM191.117 35.5496C190.441 33.2352 189.557 31.0508 188.465 28.9964C187.243 32.5851 186.54 35.9787 186.358 39.1773C188.231 38.2151 189.817 37.0059 191.117 35.5496Z"
        fill="#140400" />
    <path fill-rule="evenodd" clip-rule="evenodd"
        d="M152.687 51.4351C152.687 51.0018 153.717 50.6136 154.951 50.3118L161.121 56.1596L166.68 50.2718C167.783 50.6414 168.72 51.1242 169.218 51.4351V64.5965C167.306 66.1714 163.01 69.2536 161.121 68.9836C159.232 68.7136 154.711 65.9464 152.687 64.5965V51.4351ZM158.085 49.7477C157.531 49.8171 156.805 49.927 156.067 50.0696L161.121 54.8097L165.633 49.9736C165.038 49.8352 164.422 49.7477 163.82 49.7477C163.671 48.9797 163.51 48.5729 163.365 48.2093C162.865 46.9509 162.571 46.2104 163.738 32.8023C162.687 31.9206 160.246 30.797 158.16 32.8001C158.312 34.656 158.471 36.343 158.616 37.8739L158.616 37.874C159.212 44.1938 159.558 47.8531 158.085 49.7477ZM158.085 31.8618C158.085 31.8618 158.085 31.8618 158.085 31.8617C152.687 28.622 149.764 24.4374 148.977 22.75H174.278C174.278 24.9098 167.306 29.7244 163.82 31.8617L163.82 31.8611C161.931 29.9713 159.209 31.0737 158.085 31.8611V31.8618Z"
        fill="#140400" />
</svg>